# xmcd CD database file
#
# Track frame offsets:
#	150
#	19012
#	40912
#	59875
#	83025
#	95112
#	111850
#	129812
#	142762
#	158662
#	171275
#	189387
#
# Disc length: 2689 seconds
#
# Revision: 0
# Processed by: cddbd v1.4PL0 Copyright (c) Steve Scherf et al.
# Submitted via: CDex 1.40Release
#
DISCID=990a7f0c
DTITLE=Joe Cocker - One more time
DYEAR=1990
DGENRE=Blues
TTITLE0=Feeling allright
TTITLE1=Talking back to the night
TTITLE2=The letter
TTITLE3=With a little help from my friends
TTITLE4=She came in through the bathroom window
TTITLE5=Many rivers to cross
TTITLE6=Up where we belong
TTITLE7=Delta lady
TTITLE8=Threw it away
TTITLE9=Marjorine
TTITLE10=Cry me a river
TTITLE11=You are so beatiful
EXTD=YEAR: 1990 ID3G: 0
EXTT0=
EXTT1=
EXTT2=
EXTT3=
EXTT4=
EXTT5=
EXTT6=
EXTT7=
EXTT8=
EXTT9=
EXTT10=
EXTT11=
PLAYORDER=
